<?xml version="1.0" standalone="no"?>
<!DOCTYPE svg PUBLIC "-//W3C//DTD SVG 20010904//EN"
 "http://www.w3.org/TR/2001/REC-SVG-20010904/DTD/svg10.dtd">
<svg version="1.0" xmlns="http://www.w3.org/2000/svg"
 width="425.000000pt" height="425.000000pt" viewBox="0 0 425.000000 425.000000"
 preserveAspectRatio="xMidYMid meet">
<metadata>
Created by potrace 1.11, written by Peter Selinger 2001-2013
</metadata>
<g transform="translate(0.000000,425.000000) scale(0.100000,-0.100000)"
fill="#000000" stroke="none">
<path d="M2635 3723 c-105 -8 -230 -24 -273 -35 -171 -41 -450 -159 -555 -235
-29 -20 -92 -69 -142 -109 -49 -39 -115 -85 -145 -100 -49 -26 -64 -29 -145
-28 -49 1 -146 6 -215 11 -199 16 -350 -9 -450 -72 -167 -106 -250 -344 -250
-713 l0 -174 -59 -81 c-150 -207 -282 -491 -335 -722 -23 -99 -34 -164 -51
-295 -13 -107 -13 -133 -2 -180 l14 -55 20 70 c11 39 33 115 48 170 117 426
273 743 472 959 l43 46 122 4 c181 7 301 36 450 111 40 20 94 52 121 71 47 34
67 42 67 26 0 -5 32 -58 72 -118 77 -116 241 -291 355 -377 203 -154 459 -273
728 -338 50 -11 93 -24 96 -28 3 -3 0 -42 -7 -86 -7 -44 -18 -111 -24 -150 -6
-38 -19 -114 -28 -167 l-17 -98 -35 -6 c-240 -40 -371 -131 -370 -258 1 -26 3
-29 13 -16 26 33 85 69 146 89 99 32 104 31 99 -30 -9 -90 -2 -95 51 -40 65
68 118 92 213 98 87 6 109 20 78 48 -51 46 4 336 91 479 42 71 57 76 155 53
155 -36 226 -137 241 -337 12 -172 -26 -247 -142 -284 -33 -10 -67 -21 -75
-23 -8 -3 -49 -14 -90 -25 -97 -25 -187 -69 -224 -107 -16 -17 -27 -33 -25
-36 3 -2 32 0 65 5 87 15 248 28 256 21 4 -3 1 -35 -7 -71 -7 -36 -12 -67 -10
-69 2 -2 38 15 79 38 112 61 210 91 300 91 43 0 78 5 82 11 3 6 -7 25 -24 42
-41 42 -52 75 -52 152 0 224 128 417 422 638 285 215 376 359 432 687 50 295
33 583 -45 780 -64 160 -188 317 -339 429 -180 134 -501 257 -805 310 -58 10
-320 33 -340 29 -5 -1 -28 -3 -50 -5z"/>
</g>
</svg>
